<?xml version="1.0" standalone="no"?>
<!DOCTYPE svg PUBLIC "-//W3C//DTD SVG 20010904//EN"
 "http://www.w3.org/TR/2001/REC-SVG-20010904/DTD/svg10.dtd">
<svg version="1.0" xmlns="http://www.w3.org/2000/svg"
 width="512.000000pt" height="512.000000pt" viewBox="0 0 512.000000 512.000000"
 preserveAspectRatio="xMidYMid meet">

<g transform="translate(0.000000,512.000000) scale(0.100000,-0.100000)"
fill="#000000" stroke="none">
<path d="M0 2560 l0 -2560 858 2 c680 1 787 3 517 8 -830 17 -1263 82 -1321
199 -22 44 28 192 241 711 323 786 451 1131 499 1343 13 56 16 143 16 478 l0
409 -35 0 c-42 0 -88 21 -128 59 -88 81 -72 233 32 306 l43 30 1024 3 c702 2
1038 -1 1065 -8 46 -13 103 -60 126 -104 24 -46 22 -133 -3 -181 -29 -56 -90
-97 -154 -103 l-52 -5 5 -451 c5 -464 7 -493 52 -666 73 -288 191 -588 474
-1208 178 -390 231 -518 238 -573 5 -33 1 -42 -25 -67 -104 -97 -549 -156
-1297 -171 -221 -5 258 -8 1298 -9 l1647 -2 0 2143 c-1 1801 -3 2136 -14 2105
-35 -97 -164 -249 -279 -327 -127 -86 -317 -151 -507 -173 -93 -10 -109 -15
-145 -43 -178 -140 -499 -202 -729 -140 -142 39 -381 168 -444 240 -76 86 -63
226 27 293 83 61 166 53 295 -30 161 -103 254 -132 387 -117 107 12 176 40
243 99 83 72 105 81 230 91 153 12 247 34 345 81 96 46 160 104 209 190 42 75
94 110 170 116 85 5 143 -25 189 -98 l23 -35 0 363 0 362 -317 -1 c-256 0
-313 -3 -291 -13 39 -17 77 -55 100 -100 28 -54 20 -141 -16 -196 -45 -69 -86
-82 -281 -92 -256 -13 -433 -57 -627 -154 -104 -52 -155 -49 -294 19 -256 126
-407 159 -566 126 -176 -37 -339 -190 -472 -444 -38 -74 -76 -108 -141 -126
-42 -12 -80 -7 -215 28 -126 33 -281 41 -373 19 -151 -35 -260 -126 -335 -279
-65 -133 -119 -172 -224 -165 -108 8 -180 86 -182 198 -1 96 106 292 224 410
172 172 380 251 655 251 72 0 166 -7 210 -15 44 -8 83 -11 86 -8 3 4 34 47 69
96 174 244 401 397 650 439 14 2 -606 5 -1377 6 l-1403 1 0 -2560z"/>
<path d="M3100 5113 c124 -20 248 -59 386 -123 l81 -37 37 19 c99 51 337 117
496 137 40 5 -143 8 -480 8 -300 0 -534 -2 -520 -4z"/>
<path d="M2022 1813 l-133 -235 39 -42 c26 -28 44 -60 53 -94 l13 -52 266 0
266 0 -7 73 c-17 178 -94 340 -225 471 -32 32 -76 70 -99 86 l-41 28 -132
-235z"/>
<path d="M1330 2006 c-61 -44 -157 -151 -199 -220 -57 -95 -111 -271 -111
-362 l0 -34 265 0 c204 0 266 3 269 13 2 6 9 31 15 53 6 24 27 59 49 81 l38
39 -130 232 c-72 128 -135 232 -141 232 -5 0 -30 -15 -55 -34z"/>
<path d="M1720 1502 c-42 -21 -80 -75 -80 -114 0 -67 53 -133 110 -138 56 -5
74 2 111 39 35 34 39 44 39 87 0 61 -25 105 -73 127 -44 21 -63 21 -107 -1z"/>
<path d="M1538 952 c-71 -126 -128 -234 -128 -239 0 -15 128 -70 205 -88 93
-21 234 -19 329 5 78 20 196 67 196 79 0 3 -59 110 -130 236 -117 208 -131
230 -152 225 -35 -7 -150 -5 -173 3 -18 7 -35 -19 -147 -221z"/>
</g>
</svg>
